<?xml version="1.0" standalone="no"?>
<!DOCTYPE svg PUBLIC "-//W3C//DTD SVG 20010904//EN"
 "http://www.w3.org/TR/2001/REC-SVG-20010904/DTD/svg10.dtd">
<svg version="1.0" xmlns="http://www.w3.org/2000/svg"
 width="700.000000pt" height="700.000000pt" viewBox="0 0 700.000000 700.000000"
 preserveAspectRatio="xMidYMid meet">
<metadata>
Created by potrace 1.11, written by Peter Selinger 2001-2013
</metadata>
<g transform="translate(0.000000,700.000000) scale(0.100000,-0.100000)"
fill="#000000" stroke="none">
<path d="M3290 6994 c-676 -49 -1300 -270 -1825 -648 -293 -211 -600 -518
-811 -811 -340 -473 -557 -1037 -631 -1635 -24 -200 -24 -600 0 -800 74 -598
291 -1162 631 -1635 211 -293 518 -600 811 -811 473 -340 1038 -558 1635 -630
201 -25 601 -25 800 -1 599 74 1162 291 1635 631 293 211 600 518 811 811 340
473 557 1037 631 1635 24 200 24 600 0 800 -74 598 -291 1162 -631 1635 -211
293 -518 600 -811 811 -470 338 -1042 559 -1625 629 -130 15 -507 27 -620 19z
m2113 -1458 c89 -17 128 -36 155 -73 80 -112 72 -501 -18 -878 -102 -429 -295
-840 -551 -1171 -105 -137 -339 -371 -446 -447 -359 -255 -789 -405 -1266
-442 -84 -7 -90 -9 -133 -46 -25 -21 -91 -71 -147 -111 l-102 -73 45 -5 45 -5
-120 -108 c-329 -297 -787 -585 -1190 -750 -135 -56 -227 -72 -239 -41 -30 77
192 553 430 921 194 299 464 612 633 732 56 40 91 98 91 151 0 57 25 247 46
355 54 276 171 582 302 792 159 256 407 505 702 703 372 249 868 438 1285 489
50 6 101 13 115 15 69 10 296 5 363 -8z"/>
<path d="M4905 5081 c-76 -19 -122 -59 -156 -135 -40 -90 -3 -207 83 -264 36
-24 51 -27 119 -27 70 0 81 3 121 30 166 117 104 371 -97 398 -22 3 -53 2 -70
-2z"/>
<path d="M4263 4680 c-80 -12 -176 -62 -239 -124 -169 -169 -169 -446 -1 -615
170 -171 446 -171 617 -1 161 162 170 431 18 596 -103 113 -248 165 -395 144z"/>
<path d="M3493 3726 c-92 -18 -168 -42 -219 -72 -33 -18 -156 -171 -584 -721
-299 -384 -567 -723 -596 -754 -29 -31 -56 -69 -60 -84 -9 -36 16 -83 61 -113
48 -34 83 -23 159 48 34 33 130 111 212 175 148 116 149 117 194 111 25 -3 81
-8 125 -11 l80 -6 130 101 c72 56 131 105 133 108 1 4 -44 6 -100 4 -187 -6
-204 -27 258 332 270 210 417 330 432 354 47 76 74 188 79 322 4 136 -1 157
-48 192 -34 26 -158 32 -256 14z"/>
<path d="M2580 2104 c-150 -90 -424 -219 -527 -249 -13 -3 -23 -12 -23 -19 0
-21 39 -65 72 -82 45 -23 82 -9 156 60 37 34 139 118 227 186 88 68 167 129
175 137 27 24 -4 12 -80 -33z"/>
</g>
</svg>
